<svg width="717" height="716" viewBox="0 0 717 716" fill="none" xmlns="http://www.w3.org/2000/svg"><g id="Main Component"><g id="Background" clip-path="url(#clip0_1451_38399)"><rect id="Background_2" x="0.482422" width="716" height="716" fill="#5684DF"/></g></g><defs><clipPath id="clip0_1451_38399"><rect width="716" height="716" fill="white" transform="translate(0.482422)"/></clipPath></defs><g id="Main Component"><g id="Monkey Body" clip-path="url(#clip0_1451_41337)"><g id="Vector"><path d="M220.482 246C220.482 196.295 222.355 192.313 265.956 168.446C321.28 138.161 404.36 132.429 458.945 137.16C514.954 142.015 531.481 160.863 531.481 194V462C531.481 511.706 490.187 552 440.482 552L346.915 555.275C346.915 560.006 356.009 586.533 369.941 592.003C410.783 600.387 469.9 596.692 497.769 608.771C536.56 625.582 531.007 694.415 539.842 729.755C522.62 746.742 142.055 731.23 132.755 734.933C118.755 740.506 132.755 640.65 156.023 619.497C153.113 614.373 223.88 574.544 222.349 555.167C219.097 514.003 220.482 455.412 220.482 442V246Z" fill="#356BD6" id="Vector"/><path d="M550.482 283.003C550.482 248.232 521.019 230.742 486.332 233.147L401.482 238.683L321.632 233.147C286.944 230.742 257.482 258.232 257.482 293.003V318.075C257.482 351.212 284.345 378.075 317.482 378.075H319.941C324.912 378.075 328.941 382.105 328.941 387.075V465C328.941 498.137 355.804 532 388.941 532H443.358C476.495 532 508.358 499.137 508.358 466V379.989C508.358 376.05 510.951 372.631 514.558 371.049C535.708 361.773 550.482 335.65 550.482 311.075V283.003Z" fill="#356BD6" id="Vector"/><path d="M110.112 302.983C110.112 343.307 142.801 375.996 183.125 375.996C202.071 375.996 219.332 368.779 232.309 356.945V249.022C219.332 237.187 202.071 229.971 183.125 229.971C142.801 229.971 110.112 262.66 110.112 302.983Z" fill="#356BD6" id="Vector"/><path d="M598.148 303.858C613.932 335.787 597.424 376.156 561.276 394.026C544.292 402.423 526.994 404.358 510.729 400.738L467.484 315.284C474.484 300.163 488.132 286.8 505.117 278.403C541.265 260.533 582.364 271.93 598.148 303.858Z" fill="#356BD6" id="Vector"/></g><path id="Ellipse 4" d="M531.725 402.273C541.796 401.57 551.437 398.89 561.277 394.026C597.425 376.156 613.933 335.786 598.149 303.858C588.731 284.808 569.946 273.067 548.647 270.49" stroke="black" stroke-width="8" stroke-linecap="round"/><path id="Ellipse 5" d="M555.733 367.726C576.791 357.315 586.408 333.797 577.213 315.196C572.376 305.413 563.298 298.938 552.714 296.513" stroke="black" stroke-width="8" stroke-linecap="round"/><path id="Vector 29" d="M279.672 585.16C281.832 584.697 283.959 586.072 284.422 588.232C284.885 590.392 283.51 592.519 281.35 592.982L279.672 585.16ZM212.346 600.976C210.27 601.731 207.975 600.66 207.22 598.584C206.465 596.508 207.536 594.213 209.612 593.458L212.346 600.976ZM281.35 592.982C264.204 596.66 254.982 595.502 246.129 595.078C237.708 594.674 229.139 594.87 212.346 600.976L209.612 593.458C227.479 586.962 237.114 586.637 246.512 587.087C255.479 587.517 263.693 588.587 279.672 585.16L281.35 592.982Z" fill="black"/><path id="Vector 30" d="M337.674 585.16C335.514 584.697 333.387 586.072 332.924 588.232C332.461 590.392 333.836 592.519 335.996 592.982L337.674 585.16ZM398.659 599.012C400.862 599.171 402.777 597.513 402.935 595.31C403.094 593.106 401.436 591.191 399.233 591.033L398.659 599.012ZM335.996 592.982C369.45 600.158 365.563 596.63 398.659 599.012L399.233 591.033C364.672 588.545 370.469 592.194 337.674 585.16L335.996 592.982Z" fill="black"/><path id="Vector 6" d="M363.109 590.61C363.109 590.61 291.912 547.594 285.488 514.384C316.632 553.4 339.809 553.4 344.516 553.4C349.224 553.4 363.109 590.61 363.109 590.61Z" fill="#113375"/><path id="Vector 4" d="M296.51 639.452L267.412 716.365C259.874 736.292 275.907 757.148 298.245 756.469L424.387 752.639C444.327 752.033 458.669 734.345 453.758 716.031C447.04 690.97 437.56 657.685 428.635 633.628C423.571 619.978 407.927 621.08 402.44 634.582C395.898 650.684 366.641 653.772 353.753 641.58C348.957 637.044 344.042 632.652 339.316 628.578C325.118 616.339 302.985 622.334 296.51 639.452Z" fill="#5B86DA"/><path id="Vector 8" d="M236.169 686.937C236.169 686.937 289.022 751.17 284.043 784.627C267.637 737.478 245.778 729.775 241.338 728.21C236.898 726.646 236.169 686.937 236.169 686.937Z" fill="#113375"/><path id="Vector" d="M260.94 170.535L262.675 174.139L262.675 174.139L260.94 170.535ZM471.482 137L471.482 141L471.482 137ZM532.317 244.399L534.734 241.212L534.734 241.212L532.317 244.399ZM532.376 361.127L534.688 364.392L534.688 364.391L532.376 361.127ZM260.062 477.497C258.889 475.625 256.42 475.058 254.548 476.231C252.676 477.404 252.109 479.873 253.282 481.745L260.062 477.497ZM193.673 591.339L195.638 594.824L195.638 594.824L193.673 591.339ZM149.598 624.727L146.2 622.618L146.2 622.618L149.598 624.727ZM130.815 774.775L134.813 774.653L134.813 774.653L130.815 774.775ZM126.883 777.091C126.95 779.3 128.794 781.035 131.002 780.968C133.211 780.901 134.946 779.057 134.879 776.849L126.883 777.091ZM221.369 227.155L217.369 227.164L217.369 227.164L221.369 227.155ZM217.482 239C217.482 241.209 219.273 243 221.482 243C223.691 243 225.482 241.209 225.482 239H217.482ZM225.482 367.859C225.482 365.65 223.691 363.859 221.482 363.859C219.273 363.859 217.482 365.65 217.482 367.859H225.482ZM262.675 174.139C346.057 133.988 388.027 141 471.482 141L471.482 133C388.487 133 344.541 125.839 259.204 166.931L262.675 174.139ZM441.482 551H356.008V559H441.482V551ZM527.482 465C527.482 512.496 488.978 551 441.482 551V559C493.397 559 535.482 516.915 535.482 465H527.482ZM471.482 141C502.41 141 527.482 166.072 527.482 197H535.482C535.482 161.653 506.828 133 471.482 133L471.482 141ZM529.9 247.586C535.54 251.863 540.202 259.551 543.471 269.524C546.714 279.417 548.443 291.134 548.534 302.919C548.625 314.707 547.077 326.383 543.897 336.203C540.694 346.093 535.98 353.673 530.064 357.863L534.688 364.391C542.576 358.804 548.035 349.389 551.508 338.668C555.002 327.875 556.63 315.321 556.534 302.857C556.437 290.391 554.614 277.836 551.073 267.033C547.559 256.31 542.206 246.879 534.734 241.212L529.9 247.586ZM356.008 551C331.716 551 307.902 533.276 289.669 514.522C280.666 505.261 273.248 495.984 268.079 489.016C265.497 485.535 263.482 482.639 262.117 480.62C261.435 479.61 260.916 478.821 260.57 478.288C260.396 478.022 260.267 477.82 260.182 477.686C260.139 477.62 260.108 477.57 260.088 477.538C260.078 477.522 260.07 477.511 260.066 477.504C260.064 477.501 260.062 477.498 260.062 477.497C260.061 477.496 260.061 477.496 260.061 477.496C260.061 477.496 260.062 477.497 256.672 479.621C253.282 481.745 253.283 481.746 253.284 481.747C253.285 481.748 253.286 481.75 253.287 481.751C253.289 481.755 253.292 481.759 253.295 481.765C253.302 481.776 253.312 481.792 253.325 481.813C253.351 481.853 253.388 481.912 253.437 481.988C253.533 482.14 253.675 482.361 253.861 482.646C254.232 483.218 254.778 484.048 255.489 485.1C256.911 487.203 258.994 490.196 261.654 493.782C266.968 500.947 274.615 510.515 283.933 520.099C302.342 539.034 328.196 559 356.008 559V551ZM191.709 587.855C183.095 592.712 173.734 598.229 165.587 604.037C157.531 609.779 150.255 616.085 146.2 622.618L152.997 626.837C156.175 621.716 162.351 616.168 170.231 610.551C178.021 604.998 187.08 599.649 195.638 594.824L191.709 587.855ZM146.2 622.618C134.624 641.267 129.313 662.649 127.113 687.618C124.918 712.528 125.798 741.34 126.816 774.896L134.813 774.653C133.79 740.948 132.938 712.659 135.082 688.32C137.222 664.042 142.324 644.031 152.997 626.837L146.2 622.618ZM126.816 774.896L126.883 777.091L134.879 776.849L134.813 774.653L126.816 774.896ZM535.482 242.748V197H527.482V242.748H535.482ZM527.482 362.82V465H535.482V362.82H527.482ZM259.204 166.931C246.867 172.872 236.294 179.525 228.863 189.03C221.344 198.648 217.333 210.8 217.369 227.164L225.369 227.146C225.336 212.203 228.959 201.897 235.166 193.958C241.461 185.906 250.707 179.902 262.675 174.139L259.204 166.931ZM217.369 227.164C217.375 230.041 217.404 231.124 217.431 232.427C217.457 233.693 217.482 235.206 217.482 239H225.482C225.482 235.161 225.456 233.592 225.429 232.262C225.402 230.972 225.375 229.948 225.369 227.146L217.369 227.164ZM225.482 542.712V390.432H217.482V542.712H225.482ZM225.482 390.432V367.859H217.482V390.432H225.482ZM530.064 357.863C528.514 358.961 527.482 360.771 527.482 362.82H535.482C535.482 363.514 535.131 364.077 534.688 364.392L530.064 357.863ZM534.734 241.212C535.159 241.534 535.482 242.086 535.482 242.748H527.482C527.482 244.716 528.434 246.474 529.9 247.586L534.734 241.212ZM195.638 594.824C214.814 584.012 225.482 564.559 225.482 542.712H217.482C217.482 561.841 208.226 578.542 191.709 587.855L195.638 594.824Z" fill="black"/><path id="Ellipse 2" d="M229.983 252.316C231.605 253.817 234.135 253.719 235.636 252.097C237.136 250.476 237.038 247.945 235.416 246.445L229.983 252.316ZM235.416 359.522C237.038 358.021 237.136 355.491 235.636 353.869C234.135 352.248 231.605 352.149 229.983 353.65L235.416 359.522ZM183.125 371.996C145.01 371.996 114.112 341.098 114.112 302.983H106.112C106.112 345.516 140.592 379.996 183.125 379.996V371.996ZM114.112 302.983C114.112 264.868 145.01 233.97 183.125 233.97V225.97C140.592 225.97 106.112 260.45 106.112 302.983H114.112ZM183.125 233.97C201.216 233.97 217.673 240.926 229.983 252.316L235.416 246.445C221.686 233.74 203.309 225.97 183.125 225.97V233.97ZM229.983 353.65C217.673 365.04 201.216 371.996 183.125 371.996V379.996C203.309 379.996 221.686 372.226 235.416 359.522L229.983 353.65Z" fill="black"/><path id="Ellipse 3" d="M181.926 346.739C179.718 346.664 177.867 348.393 177.792 350.601C177.717 352.809 179.446 354.66 181.654 354.734L181.926 346.739ZM131.203 296.356C130.957 298.552 132.538 300.531 134.733 300.776C136.929 301.022 138.908 299.442 139.154 297.246L131.203 296.356ZM154.296 268.508C172.911 252.42 201.044 254.469 217.132 273.085L223.185 267.854C204.208 245.896 171.023 243.478 149.065 262.455L154.296 268.508ZM217.132 273.085C233.22 291.701 231.17 319.833 212.555 335.921L217.786 341.974C239.744 322.997 242.162 289.813 223.185 267.854L217.132 273.085ZM212.555 335.921C203.718 343.558 192.747 347.106 181.926 346.739L181.654 354.734C194.409 355.168 207.366 350.979 217.786 341.974L212.555 335.921ZM139.154 297.246C140.358 286.486 145.459 276.145 154.296 268.508L149.065 262.455C138.645 271.46 132.623 283.673 131.203 296.356L139.154 297.246Z" fill="black"/><path id="Vector 1" d="M347.502 555.267V555.267C347.502 574.413 361.791 590.547 380.797 592.861L482.6 605.253C505.173 608.001 523.049 625.635 526.104 648.168L546.252 796.75" stroke="black" stroke-width="8"/><path id="Vector 3" d="M485.825 689.152C485.396 686.984 483.292 685.575 481.125 686.004C478.958 686.433 477.549 688.538 477.977 690.705L485.825 689.152ZM482.256 747.882C482.256 750.092 484.047 751.882 486.256 751.882C488.465 751.882 490.256 750.092 490.256 747.882H482.256ZM477.977 690.705C483.778 720.014 482.256 728.028 482.256 747.882H490.256C490.256 728.266 491.81 719.39 485.825 689.152L477.977 690.705Z" fill="black"/><path id="Vector 7" d="M237.825 689.152C237.396 686.985 235.292 685.575 233.125 686.004C230.958 686.433 229.549 688.538 229.977 690.705L237.825 689.152ZM234.256 747.883C234.256 750.092 236.047 751.883 238.256 751.883C240.465 751.883 242.256 750.092 242.256 747.883H234.256ZM229.977 690.705C235.778 720.014 234.256 728.028 234.256 747.883H242.256C242.256 728.266 243.81 719.39 237.825 689.152L229.977 690.705Z" fill="black"/><path id="Vector" d="M538.482 291.039C538.482 256.268 509.02 234.778 474.332 237.183C432.652 246.758 389.451 247.687 347.398 239.912L332.633 237.183C297.945 234.778 268.482 262.268 268.482 297.039V338.111C268.482 371.248 270.345 398.111 303.482 398.111H305.942C310.912 398.111 314.942 402.141 314.942 407.111V470.036C314.942 503.174 341.805 530.037 374.942 530.037H452.358C485.495 530.037 512.358 503.174 512.358 470.037V365.185C512.358 362.056 514.227 359.226 516.902 357.602C523.058 353.864 533.545 345.729 535.83 332.705C539.111 314.004 538.482 291.039 538.482 291.039Z" fill="#5B86DA"/></g></g><defs><clipPath id="clip0_1451_41337"><rect width="716" height="716" fill="white" transform="translate(0.482422)"/></clipPath></defs><g id="Main Component"><g id="Clothing" clip-path="url(#clip0_1451_60649)"><g id="Group 55"><path id="Vector" d="M158.338 616.404C135.069 637.557 121.07 737.413 135.069 731.84C144.37 728.138 519.26 742.987 536.482 726C527.647 690.659 537.273 626.812 498.482 610C470.613 597.922 413.097 597.294 372.256 588.91C366.389 586.607 361.381 580.571 357.547 574L284.982 578L211.526 574C190.781 592.557 156.317 612.847 158.338 616.404Z" fill="#0055BB"/><path id="Vector 58" d="M264.158 632.345C231.107 678.609 271.311 735.476 309.042 776.731C364.374 837.231 470.961 864.296 504.373 785.336C526.552 732.923 518.672 674.727 478.606 639.038C447.313 611.164 417.581 626.419 378.032 624.694C333.517 622.753 292.442 592.754 264.158 632.345Z" fill="#085FC9"/><path id="Vector 59" d="M190.933 628.838C161.357 603.467 149.166 649.417 142.881 690.924C133.664 751.794 154.003 857.117 197.605 878.472C226.549 892.647 248.969 877.367 252.186 834.373C254.699 800.794 239.316 774.455 228.229 736.484C215.749 693.747 216.242 650.548 190.933 628.838Z" fill="#014FAD"/><path id="Vector" d="M193.624 591.469L195.588 594.953L195.588 594.953L193.624 591.469ZM149.548 624.857L146.15 622.747L146.15 622.747L149.548 624.857ZM130.765 774.905L134.763 774.783L134.763 774.783L130.765 774.905ZM126.833 777.221C126.9 779.429 128.745 781.165 130.953 781.098C133.161 781.031 134.897 779.187 134.83 776.979L126.833 777.221ZM380.747 592.991L380.264 596.961L380.264 596.961L380.747 592.991ZM482.55 605.383L483.033 601.412L483.033 601.412L482.55 605.383ZM526.055 648.298L530.018 647.761L530.018 647.761L526.055 648.298ZM354.804 577.821L358.027 575.452L356.828 573.821H354.804V577.821ZM209.677 577.821V573.821H207.74L206.539 575.34L209.677 577.821ZM191.659 587.985C183.045 592.841 173.684 598.359 165.537 604.166C157.481 609.909 150.205 616.214 146.15 622.747L152.947 626.966C156.125 621.846 162.301 616.298 170.181 610.68C177.971 605.128 187.031 599.778 195.588 594.953L191.659 587.985ZM146.15 622.747C134.574 641.396 129.264 662.778 127.063 687.748C124.868 712.657 125.748 741.47 126.767 775.026L134.763 774.783C133.74 741.078 132.888 712.788 135.032 688.45C137.172 664.172 142.274 644.16 152.947 626.966L146.15 622.747ZM126.767 775.026L126.833 777.221L134.83 776.979L134.763 774.783L126.767 775.026ZM380.264 596.961L482.067 609.354L483.033 601.412L381.23 589.02L380.264 596.961ZM522.091 648.836L542.238 797.418L550.165 796.343L530.018 647.761L522.091 648.836ZM482.067 609.354C502.834 611.882 519.28 628.105 522.091 648.836L530.018 647.761C526.718 623.424 507.412 604.38 483.033 601.412L482.067 609.354ZM351.582 580.191C358.213 589.208 368.409 595.518 380.264 596.961L381.23 589.02C371.643 587.853 363.398 582.756 358.027 575.452L351.582 580.191ZM195.588 594.953C202.43 591.096 208.213 586.122 212.815 580.302L206.539 575.34C202.591 580.333 197.609 584.63 191.659 587.985L195.588 594.953ZM354.804 573.821H209.677V581.821H354.804V573.821Z" fill="black"/><path id="Vector 3" d="M484.916 689.378C484.541 687.482 482.699 686.249 480.803 686.624C478.907 686.999 477.674 688.841 478.049 690.737L484.916 689.378ZM482.337 748.012C482.337 749.945 483.904 751.512 485.837 751.512C487.77 751.512 489.337 749.945 489.337 748.012H482.337ZM478.049 690.737C483.861 720.105 482.337 728.172 482.337 748.012H489.337C489.337 728.38 490.889 719.558 484.916 689.378L478.049 690.737Z" fill="black"/><path id="Vector 7" d="M237.285 689.378C236.91 687.482 235.068 686.249 233.172 686.624C231.276 686.999 230.043 688.841 230.418 690.737L237.285 689.378ZM234.706 748.012C234.706 749.945 236.273 751.512 238.206 751.512C240.139 751.512 241.706 749.945 241.706 748.012H234.706ZM230.418 690.737C236.23 720.105 234.706 728.172 234.706 748.012H241.706C241.706 728.38 243.258 719.558 237.285 689.378L230.418 690.737Z" fill="black"/><path id="Vector 57" d="M246.623 579.91C232.564 578.819 212.672 576.049 203.787 574.761C201.364 574.409 199.191 576.288 199.191 578.736V584.635C199.191 586.624 200.641 588.309 202.611 588.581C210.794 589.711 231.911 592.527 246.623 593.606C264.084 594.887 286.924 594.778 304.16 594.41C320.872 594.053 337.516 592.519 354.09 590.346L367.735 588.558C369.726 588.297 371.215 586.6 371.215 584.592V578.738C371.215 576.289 369.035 574.413 366.612 574.775C358.104 576.045 339.82 578.724 329.218 579.91C297.163 583.497 278.781 582.407 246.623 579.91Z" fill="#0055BB"/><path id="Vector 57 (Stroke)" fill-rule="evenodd" clip-rule="evenodd" d="M204.936 566.844C213.836 568.135 233.483 570.866 247.242 571.934C279.238 574.418 297.026 575.462 328.329 571.96C338.757 570.793 356.891 568.137 365.431 566.862C372.68 565.78 379.215 571.391 379.215 578.738V584.592C379.215 590.616 374.748 595.707 368.775 596.49L355.13 598.278C338.359 600.477 321.413 602.043 304.33 602.408C287.061 602.777 263.901 602.895 246.037 601.585C231.036 600.484 209.679 597.632 201.517 596.505C195.536 595.68 191.191 590.567 191.191 584.635V578.736C191.191 571.407 197.693 565.793 204.936 566.844ZM203.787 574.761C212.672 576.049 232.564 578.819 246.623 579.91C278.781 582.407 297.163 583.497 329.218 579.91C339.82 578.724 358.104 576.045 366.612 574.775C369.035 574.413 371.215 576.289 371.215 578.738V584.592C371.215 586.6 369.726 588.297 367.735 588.558L354.09 590.346C337.516 592.519 320.872 594.053 304.16 594.41C286.924 594.778 264.084 594.887 246.623 593.606C231.911 592.527 210.794 589.711 202.611 588.581C200.641 588.309 199.191 586.624 199.191 584.635V578.736C199.191 576.288 201.364 574.409 203.787 574.761Z" fill="black"/><path id="Vector 8" d="M235.169 686.934C235.169 686.934 288.022 751.167 283.043 784.624C266.637 737.475 244.778 729.772 240.338 728.207C235.898 726.643 235.169 686.934 235.169 686.934Z" fill="black" fill-opacity="0.5"/></g></g></g><defs><clipPath id="clip0_1451_60649"><rect width="716" height="716" fill="white" transform="translate(0.482422)"/></clipPath></defs><g id="Main Component"><g id="Ear Accessory"><g id="Vector (Stroke)"><g filter="url(#filter0_iii_1451_76734)"><path d="M152.89 348.08C154.067 346.211 156.537 345.651 158.406 346.828C163.226 349.866 166.967 354.667 168.558 360.607C171.913 373.127 164.483 385.997 151.963 389.352C139.442 392.707 126.573 385.276 123.218 372.756C121.626 366.816 122.465 360.788 125.121 355.747L130.652 364.809C130.652 364.809 129.895 366.767 130.945 370.685C133.157 378.938 141.639 383.836 149.892 381.624C158.145 379.413 163.042 370.93 160.831 362.677C159.781 358.759 157.324 355.603 154.141 353.596C152.272 352.418 151.712 349.949 152.89 348.08Z" fill="url(#paint0_radial_1451_76734)"/></g><path d="M128.535 353.663L124.865 347.65L121.581 353.883C118.475 359.78 117.492 366.84 119.354 373.791C123.281 388.445 138.343 397.142 152.998 393.215C167.652 389.289 176.349 374.226 172.422 359.572C170.56 352.621 166.177 346.998 160.539 343.445C156.801 341.089 151.861 342.209 149.506 345.947C147.15 349.685 148.27 354.625 152.008 356.98C154.372 358.471 156.188 360.804 156.967 363.713C158.607 369.832 154.976 376.121 148.857 377.761C142.738 379.4 136.448 375.769 134.809 369.65C134.391 368.091 134.366 367.051 134.398 366.514C134.41 366.301 134.432 366.16 134.446 366.089L135.095 364.41L134.066 362.725L128.535 353.663Z" stroke="black" stroke-width="8"/></g></g></g><defs><filter id="filter0_iii_1451_76734" x="114.413" y="338.211" width="62.9531" height="59.9483" filterUnits="userSpaceOnUse" color-interpolation-filters="sRGB"><feFlood flood-opacity="0" result="BackgroundImageFix"/><feBlend mode="normal" in="SourceGraphic" in2="BackgroundImageFix" result="shape"/><feColorMatrix in="SourceAlpha" type="matrix" values="0 0 0 0 0 0 0 0 0 0 0 0 0 0 0 0 0 0 127 0" result="hardAlpha"/><feOffset/><feGaussianBlur stdDeviation="0.3"/><feComposite in2="hardAlpha" operator="arithmetic" k2="-1" k3="1"/><feColorMatrix type="matrix" values="0 0 0 0 1 0 0 0 0 1 0 0 0 0 1 0 0 0 1 0"/><feBlend mode="normal" in2="shape" result="effect1_innerShadow_1451_76734"/><feColorMatrix in="SourceAlpha" type="matrix" values="0 0 0 0 0 0 0 0 0 0 0 0 0 0 0 0 0 0 127 0" result="hardAlpha"/><feOffset dy="-1"/><feComposite in2="hardAlpha" operator="arithmetic" k2="-1" k3="1"/><feColorMatrix type="matrix" values="0 0 0 0 1 0 0 0 0 1 0 0 0 0 1 0 0 0 1 0"/><feBlend mode="normal" in2="effect1_innerShadow_1451_76734" result="effect2_innerShadow_1451_76734"/><feColorMatrix in="SourceAlpha" type="matrix" values="0 0 0 0 0 0 0 0 0 0 0 0 0 0 0 0 0 0 127 0" result="hardAlpha"/><feOffset dy="-0.5"/><feComposite in2="hardAlpha" operator="arithmetic" k2="-1" k3="1"/><feColorMatrix type="matrix" values="0 0 0 0 1 0 0 0 0 0.847059 0 0 0 0 0.301961 0 0 0 1 0"/><feBlend mode="normal" in2="effect2_innerShadow_1451_76734" result="effect3_innerShadow_1451_76734"/></filter><radialGradient id="paint0_radial_1451_76734" cx="0" cy="0" r="1" gradientUnits="userSpaceOnUse" gradientTransform="translate(145.889 368.185) rotate(90) scale(21.9726 23.4754)"><stop stop-color="white"/><stop offset="1" stop-color="#FFD53E"/></radialGradient></defs><g id="Main Component"><g id="Head"><g id="Group 253"><path id="Vector 660" d="M241.625 52.8541C239.425 52.8541 237.115 53.7691 234.73 55.4679C208.339 74.2645 172.668 189.02 172.448 222.033C172.208 258.03 189.05 271.782 199.485 294.871C209.611 317.275 215.241 341.54 214.695 366.121L210.783 542.006C210.665 547.321 213.013 552.392 217.144 555.739L217.537 556.058C223.187 560.637 231.048 560.946 236.982 557.117C237.774 556.606 238.531 556.021 239.244 555.363C242.652 552.22 244.591 547.796 244.591 543.16V364.803C244.591 341.063 249.948 317.453 263.964 298.293C290.056 262.625 341.765 208.328 414.574 208.704C455.017 208.913 485.148 214.341 507.031 221.062C542.198 231.865 557.264 267.652 557.264 304.441C557.264 304.441 557.264 304.441 557.264 304.441C557.264 304.441 557.264 337.025 531.959 362.242V545.083C531.959 547.753 532.694 550.318 534.083 552.598C539.261 561.096 551.252 562.002 557.648 554.379L558.498 553.366C560.806 550.615 562.087 547.149 562.123 543.559L565.409 210.868C565.72 179.379 565.412 209.549 565.409 208.704C565.205 142.076 541.979 49.6827 526.646 45.2824C512.755 41.2959 486.34 74.1558 451.99 98.9972C445.08 103.994 436.392 105.583 427.918 104.627C383.145 99.5741 351.204 107.012 333.852 107.162C331.351 107.184 329.033 106.033 327.294 104.235C302.875 79.0058 267.22 52.8541 241.625 52.8541Z" fill="#356BD6" stroke="black" stroke-width="8" stroke-linecap="round"/><g id="Mask Group"><g id="Vector"><path d="M519.003 169.511C519.778 177.621 516.171 184.649 510.948 185.208C505.725 185.766 500.863 179.644 500.089 171.534C499.314 163.423 502.921 156.396 508.144 155.837C513.367 155.278 518.229 161.4 519.003 169.511Z" fill="black"/><path fill-rule="evenodd" clip-rule="evenodd" d="M523.867 184.01C521.616 188.395 517.539 192.543 511.708 193.167C505.877 193.791 501.098 190.589 498.064 186.769C495 182.911 493.088 177.782 492.568 172.338C492.049 166.895 492.953 161.464 495.225 157.035C497.476 152.65 501.553 148.501 507.384 147.878C513.215 147.254 517.994 150.455 521.028 154.276C524.092 158.133 526.004 163.263 526.523 168.707C527.043 174.15 526.139 179.581 523.867 184.01ZM510.948 185.208C516.171 184.649 519.778 177.621 519.003 169.511C518.229 161.4 513.367 155.278 508.144 155.837C502.921 156.396 499.314 163.423 500.089 171.534C500.863 179.644 505.725 185.766 510.948 185.208Z" fill="black"/></g><g id="Vector_2"><path d="M336.648 171.789C337.591 181.113 332.723 189.24 325.776 189.942C318.83 190.644 312.434 183.655 311.492 174.331C310.55 165.007 315.418 156.88 322.364 156.178C329.311 155.476 335.706 162.465 336.648 171.789Z" fill="black"/><path fill-rule="evenodd" clip-rule="evenodd" d="M341.034 188.209C338.097 193.113 333.144 197.239 326.581 197.902C320.017 198.565 314.339 195.513 310.48 191.297C306.623 187.08 304.16 181.341 303.533 175.135C302.906 168.93 304.17 162.814 307.107 157.911C310.044 153.007 314.997 148.882 321.56 148.218C328.123 147.555 333.802 150.607 337.66 154.823C341.518 159.04 343.981 164.78 344.608 170.985C345.235 177.19 343.97 183.306 341.034 188.209ZM325.776 189.942C332.723 189.24 337.591 181.113 336.648 171.789C335.706 162.465 329.311 155.476 322.364 156.178C315.418 156.88 310.55 165.007 311.492 174.331C312.434 183.655 318.83 190.644 325.776 189.942Z" fill="black"/></g><ellipse id="Ellipse 455" cx="333.528" cy="162.443" rx="5.49447" ry="4.49447" transform="rotate(43 333.528 162.443)" fill="white"/><ellipse id="Ellipse 456" cx="515.528" cy="158.443" rx="5.49447" ry="4.49447" transform="rotate(43 515.528 158.443)" fill="white"/></g><path id="Vector 661" d="M212.031 159.731C212.031 159.731 179.285 151.487 161.817 153.165M212.031 176.846C212.031 176.846 166.897 171.891 146.637 176.846M208.832 191.927C208.832 191.927 182.822 195.662 162.562 200.616" stroke="black" stroke-width="8" stroke-linecap="round"/><path id="Vector 662" d="M564.507 160.451C564.507 160.451 587.238 153.763 599.364 155.124M564.507 174.335C564.507 174.335 595.838 170.315 609.901 174.335M566.728 186.569C566.728 186.569 584.783 189.599 598.847 193.618" stroke="black" stroke-width="8" stroke-linecap="round"/><path id="Ellipse 452" d="M438.543 187.099C438.543 193.274 432.218 195.004 424.417 195.004C416.615 195.004 410.29 193.274 410.29 187.099C410.29 180.924 416.615 175.918 424.417 175.918C432.218 175.918 438.543 180.924 438.543 187.099Z" fill="black"/><ellipse id="Ellipse 27" cx="430.758" cy="183.85" rx="2.89866" ry="4.34448" transform="rotate(-45 430.758 183.85)" fill="white"/><path id="Vector_3" d="M175.97 222.034C175.741 258.031 191.852 271.783 201.835 294.872C211.522 317.276 216.908 341.542 216.385 366.122L212.643 542.007C212.53 547.322 214.777 552.393 218.728 555.741L219.104 556.059C224.509 560.638 232.029 560.947 237.706 557.118C237.941 556.96 238.172 556.794 238.4 556.621C236.704 557.361 231.89 555.605 226.176 542.663C219.028 526.474 225.51 381.305 226.176 355.572C226.841 329.838 213.534 297.796 202.533 242.205C193.732 197.732 221.343 98.8539 236.249 54.9727C236.018 55.1299 235.785 55.2955 235.552 55.4693C210.305 74.2659 176.18 189.021 175.97 222.034Z" fill="black" fill-opacity="0.5"/></g><path id="Vector 743" d="M541.026 136.863C548.197 136.863 533.239 98.0645 524.425 73.5587C523.062 69.769 518.474 68.4038 515.789 71.4055C514.014 73.3899 512.292 75.7129 511.142 78.1578C507.882 85.0835 498.284 110.256 509.254 110.256C530.019 110.256 526.661 136.863 541.026 136.863Z" fill="#5B86DA"/></g></g><g id="Main Component"><g id="Nose"><g id="Group 45"><path id="Union" d="M452.856 382.318C452.856 369.729 442.651 359.524 430.062 359.524H400.148C387.56 359.524 377.354 369.729 377.354 382.318C377.354 387.841 381.832 392.318 387.354 392.318C390.772 392.318 393.543 395.089 393.543 398.506V401.422C393.543 406.45 397.619 410.526 402.647 410.526H427.563C432.591 410.526 436.667 406.45 436.667 401.422V398.507C436.667 395.089 439.438 392.318 442.856 392.318C448.379 392.318 452.856 387.841 452.856 382.318Z" fill="#356BD6"/><g id="Group 13"><path id="Rectangle 6" d="M407.482 372.122C407.482 368.266 404.357 365.141 400.501 365.141H397.445C389.733 365.141 383.482 371.392 383.482 379.103V380.16C383.482 384.015 386.608 387.141 390.463 387.141H393.52C401.231 387.141 407.482 380.89 407.482 373.179V372.122Z" fill="black"/><path id="Rectangle 7" d="M423.482 372.122C423.482 368.266 426.608 365.141 430.463 365.141H433.52C441.231 365.141 447.482 371.392 447.482 379.103V380.16C447.482 384.015 444.357 387.141 440.501 387.141H437.445C429.733 387.141 423.482 380.89 423.482 373.179V372.122Z" fill="black"/></g></g></g></g><g id="Main Component"><g id="Eyes"><g id="Group 193"><circle id="Ellipse 23" cx="328.142" cy="307.714" r="46.2867" fill="#356BD6"/><circle id="Ellipse 28" cx="494.244" cy="307.714" r="46.2867" fill="#356BD6"/><g id="Group 148"><circle id="Ellipse 25" r="26.2291" transform="matrix(1 0 0 -1 337.315 302.545)" fill="black"/><circle id="Ellipse 29" r="26.2291" transform="matrix(1 0 0 -1 503.417 302.545)" fill="black"/><ellipse id="Ellipse 27" cx="344.875" cy="293.776" rx="8.89866" ry="10.8445" transform="rotate(-45 344.875 293.776)" fill="white"/><ellipse id="Ellipse 30" cx="510.976" cy="293.776" rx="8.89866" ry="10.8445" transform="rotate(-45 510.976 293.776)" fill="white"/></g></g></g></g><g id="Main Component"><g id="Mouth"><path id="Vector 33" d="M400.573 452.127C388.125 450.868 379.327 459.192 372.598 465.957C370.605 467.961 372.109 471.803 374.935 471.803L416.483 471.803H455.703C458.565 471.803 459.989 467.94 457.883 466.002C450.532 459.238 441.411 451.023 432.031 452.127C419.578 453.592 412.983 453.383 400.573 452.127Z" fill="#356BD6"/><path id="Vector 153" d="M430.394 509.885C440.523 510.806 451.953 506.024 461.003 500.933C463.899 499.304 461.856 493.873 458.542 494.118C449.309 494.799 435.273 495.4 414.483 495.4C397.373 495.4 385.091 494.993 376.37 494.469C372.93 494.262 370.629 500.893 373.7 502.457C382.393 506.884 392.102 510.608 398.936 509.885C411.388 508.568 417.983 508.756 430.394 509.885Z" fill="#356BD6"/><path id="Vector 152" d="M358.482 471V471C367.103 472.331 375.813 473 384.535 473H416.482H448.43C457.152 473 465.862 472.331 474.482 471V471" stroke="black" stroke-width="8" stroke-linecap="round"/></g></g></svg>